<?xml version="1.0" encoding="utf-8"?>
<!-- Generator: Adobe Illustrator 27.3.1, SVG Export Plug-In . SVG Version: 6.00 Build 0)  -->
<svg version="1.1" id="Layer_1" xmlns="http://www.w3.org/2000/svg" xmlns:xlink="http://www.w3.org/1999/xlink" x="0px" y="0px"
	 viewBox="0 0 783.2 1001.8" style="enable-background:new 0 0 783.2 1001.8;" xml:space="preserve">
<style type="text/css">
	.st0{fill:#EC1713;}
	.st1{fill:url(#SVGID_1_);}
	.st2{fill:url(#SVGID_00000059289451381526746920000009265956857858133123_);}
	.st3{fill:#991B1E;}
	.st4{fill:url(#SVGID_00000020378044396938696690000017340803116334244001_);}
	.st5{fill:#F8991E;}
	.st6{fill:#BD4A1E;}
</style>
<g>
	<g>
		<path d="M2831.9-367.6c0,4.1-0.1,8.2-0.3,12.2l-4.6-0.5c0.2-4.4,0.4-8.9,0.4-13.4c0-26.5-4.3-52.1-12.2-76l3.6-0.9
			C2827.3-421.6,2831.9-395.2,2831.9-367.6z"/>
		<path d="M2546-142.8l-0.8,4.7c-36.3-9.4-68.9-26.3-96.6-48.8l2.6-3.8C2478.5-169.2,2510.6-151.8,2546-142.8z"/>
		<path d="M2466.8-212.9l-15.1,21.6l-3.1,4.4l-13.9,19.8c-67.3-48.6-111.1-127.8-111.1-217.1c0-2.9,0.1-5.7,0.1-8.6
			c0.1-1.5,0.1-2.9,0.2-4.4c3.9-82.1,44.8-154.6,106.5-201c2.4,3.8,5.3,7.3,8.8,10.2c-47.8,41.3-70.6,108.9-64.4,181.4
			c0.1,1.4,0.2,2.8,0.4,4.3c3.8,37.7,15.4,76.7,35.3,113.9C2426-259.4,2445.2-234,2466.8-212.9z"/>
		<path d="M2857.2-352.6c-15.6,133-128.7,236.1-265.9,236.1c-16.7,0-33.1-1.5-49-4.5l2.9-17.2l1.1-6.5l2.1-12.8
			c53.9,23,111.8,24.1,160.9-2.2c67.1-36,100.7-113.8,94.4-198.9l23.4,2.6l4.6,0.5L2857.2-352.6z"/>
		<g>
			<path d="M2504.3-619.4c0,21.5-17.5,39-39,39c-9,0-17.8-3.2-24.8-8.9c-3.3-2.7-6.1-6-8.4-9.6l-0.1-0.2c-3.7-6.1-5.6-13.1-5.6-20.2
				c0-21.5,17.5-39,39-39c14.7,0,28.2,8.4,34.8,21.4c-1.8,0.6-3.6,1.3-5.4,2c-4.9-8.3-13.8-13.5-23.5-13.5
				c-15,0-27.2,12.2-27.2,27.2c0,4.1,0.9,8,2.6,11.7c1.9,4,4.7,7.4,8.2,10.1c4.8,3.6,10.4,5.5,16.4,5.5c14.6,0,26.4-11.2,27.2-25.6
				c1.9-0.6,3.9-1.1,5.9-1.7C2504.3-620.7,2504.3-620.1,2504.3-619.4z"/>
		</g>
		<path class="st0" d="M2849.9-454l-31,7.8l-3.6,0.9l-28.8,7.3c-4.6-12.6-10-25.1-16.4-37.4c-0.7-1.3-1.4-2.6-2.1-4
			c-0.1-0.1-0.1-0.2-0.2-0.3c-54-100.8-152.6-157.8-240.6-147.1c-1.4,0.2-2.8,0.4-4.2,0.6c-6,0.9-11.9,2.1-17.8,3.6
			c-2.6,0.7-5.2,1.4-7.8,2.2c-9.7,3-19.2,7-28.4,11.9c-4.7,2.5-9.2,5.2-13.6,8.1c-3.4-2.5-6.1-5.9-7.9-9.7
			c14.7-9.4,30.3-17.3,46.8-23.7c2.4-0.9,4.8-1.8,7.3-2.7c6.1-2.2,12.2-4.1,18.5-5.8c1.4-0.4,2.7-0.8,4.1-1.1
			c21.5-5.6,44-8.5,67.2-8.5c109.5,0,203.6,65.7,245.1,159.8c0.6,1.3,1.2,2.7,1.7,4C2842.8-477.1,2846.7-465.7,2849.9-454z"/>
		<circle cx="2786.8" cy="-132.5" r="16.7"/>
		<g>
			<path d="M2374.8-406.5l-50.9,9.4l-153.2,28.4l0.4,2.2l0.4,2l152.2-28.2l51.4-9.5C2375.1-403.7,2374.9-405.1,2374.8-406.5z"/>
			<path d="M2524.1-643.4L2490-827.8l-4.2,0.8l34.2,184.7C2521.4-642.6,2522.7-643,2524.1-643.4z"/>
			<path d="M2948.2-512.8L2836.4-492c0.6,1.3,1.2,2.7,1.7,4l110.9-20.5L2948.2-512.8z"/>
			<path d="M2770.1-475.4c-0.7-1.3-1.4-2.6-2.1-4l-195.5,36.3l-2-10.9l-10.8,2l-32.4-174.8c-1.4,0.2-2.8,0.4-4.2,0.6l32.4,175
				l-10.7,2l2,10.8l-171.9,31.9c0.1,1.4,0.2,2.8,0.4,4.3l170.6-31.6c0,0,0,0,0,0l1.7-0.3l2,10.7l10.7-2l4.2-0.8l10.9-2l-2-10.6
				L2770.1-475.4z M2570.2-431.7l-6.6,1.2l-4.2,0.8l-6.4,1.2l-1.2-6.4l-0.8-4.2l-1.2-6.6l6.5-1.2l4.2-0.8l6.5-1.2l1.2,6.6l0.8,4.2
				L2570.2-431.7z"/>
			<polygon points="2563.6,-430.5 2559.4,-429.7 2558.2,-436.1 2551.8,-434.9 2551,-439.1 2557.4,-440.3 2556.2,-446.9 
				2560.4,-447.7 2561.6,-441.1 2568.2,-442.3 2569,-438.1 2562.4,-436.9 			"/>
			<polygon points="2634,-50.3 2632,-49.9 2629.8,-49.5 2617.2,-117.7 2612.9,-140.7 2560.2,-425.4 2564.4,-426.2 2617.3,-140.4 
				2621.4,-118.1 			"/>
		</g>
		<path d="M2849.9-454l-31,7.8l-3.6,0.9l-28.8,7.3c-4.6-12.6-10-25.1-16.4-37.4c-0.7-1.3-1.4-2.6-2.1-4c-0.1-0.1-0.1-0.2-0.2-0.3
			c-54-100.8-152.6-157.8-240.6-147.1c-1.4,0.2-2.8,0.4-4.2,0.6c-6,0.9-11.9,2.1-17.8,3.6c-2.6,0.7-5.2,1.4-7.8,2.2
			c-9.7,3-19.2,7-28.4,11.9c-4.7,2.5-9.2,5.2-13.6,8.1c-3.4-2.5-6.1-5.9-7.9-9.7c14.7-9.4,30.3-17.3,46.8-23.7
			c2.4-0.9,4.8-1.8,7.3-2.7c6.1-2.2,12.2-4.1,18.5-5.8c1.4-0.4,2.7-0.8,4.1-1.1c21.5-5.6,44-8.5,67.2-8.5
			c109.5,0,203.6,65.7,245.1,159.8c0.6,1.3,1.2,2.7,1.7,4C2842.8-477.1,2846.7-465.7,2849.9-454z"/>
	</g>
</g>
<g>
	<path d="M585.7,385.5c0,4.1-0.1,8.2-0.3,12.2l-4.5-0.5c0.2-4.4,0.4-8.9,0.4-13.4c0-26.5-4.3-52.1-12.2-76l3.6-0.9
		C581.1,331.6,585.7,358,585.7,385.5z"/>
	<path d="M299.8,610.4l-0.8,4.7c-36.3-9.4-68.9-26.3-96.6-48.8l2.6-3.8C232.3,584,264.4,601.4,299.8,610.4z"/>
	
		<linearGradient id="SVGID_1_" gradientUnits="userSpaceOnUse" x1="77.405" y1="631.1742" x2="220.525" y2="631.1742" gradientTransform="matrix(1 0 0 -1 0 1001.4942)">
		<stop  offset="0" style="stop-color:#F8991E"/>
		<stop  offset="0.5" style="stop-color:#BD4A1E"/>
		<stop  offset="1" style="stop-color:#991B1E"/>
	</linearGradient>
	<path class="st1" d="M220.5,540.3l-15.1,21.6l-3.1,4.4l-13.9,19.8C121.2,537.5,77.4,458.4,77.4,369c0-2.9,0-5.7,0.1-8.6
		c0-1.5,0.1-2.9,0.2-4.4c3.9-82.5,45.2-155.2,107.3-201.6c2.3,3.8,5.3,7.3,8.8,10.1c-48.3,41.2-71.4,109.1-65.2,182.1
		c0.1,1.4,0.2,2.8,0.4,4.3c3.8,37.7,15.3,76.7,35.3,113.9C179.8,493.8,199,519.2,220.5,540.3z"/>
	
		<linearGradient id="SVGID_00000139982687938082160970000015836920566633310102_" gradientUnits="userSpaceOnUse" x1="296.145" y1="485.7792" x2="611.015" y2="485.7792" gradientTransform="matrix(1 0 0 -1 0 1001.4942)">
		<stop  offset="0" style="stop-color:#F8991E"/>
		<stop  offset="0.5" style="stop-color:#BD4A1E"/>
		<stop  offset="1" style="stop-color:#991B1E"/>
	</linearGradient>
	<path style="fill:url(#SVGID_00000139982687938082160970000015836920566633310102_);" d="M611,400.6
		c-15.6,133-128.7,236.1-265.9,236.1c-16.7,0-33.1-1.5-49-4.5l2.9-17.2l1.1-6.5l2.1-12.8c53.9,23,111.8,24.1,160.9-2.2
		c67.2-36,100.7-113.8,94.4-199l23.4,2.6l4.6,0.5L611,400.6z"/>
	<path class="st3" d="M259.1,133.7c0,22.1-17.9,40-40,40c-9.7,0-18.5-3.4-25.4-9.1c-3.5-2.8-6.4-6.3-8.8-10.1c0,0,0,0,0,0
		c-3.7-6-5.8-13.1-5.8-20.7c0-22.1,17.9-40,40-40c16,0,29.8,9.4,36.2,23c-2.4,0.9-4.9,1.8-7.3,2.7c-4.4-8.2-13.1-13.7-23.1-13.7
		c-14.5,0-26.2,11.7-26.2,26.2c0,4,0.9,7.8,2.5,11.2c1.8,3.8,4.5,7.2,7.9,9.7c4.4,3.3,9.9,5.3,15.8,5.3c14.2,0,25.8-11.3,26.2-25.4
		c2.6-0.8,5.2-1.5,7.8-2.2C259.1,131.6,259.1,132.7,259.1,133.7z"/>
	
		<linearGradient id="SVGID_00000132087813609136082330000006269528739335758506_" gradientUnits="userSpaceOnUse" x1="201.305" y1="793.2391" x2="603.645" y2="793.2391" gradientTransform="matrix(1 0 0 -1 0 1001.4942)">
		<stop  offset="0" style="stop-color:#F8991E"/>
		<stop  offset="0.5" style="stop-color:#BD4A1E"/>
		<stop  offset="1" style="stop-color:#991B1E"/>
	</linearGradient>
	<path style="fill:url(#SVGID_00000132087813609136082330000006269528739335758506_);" d="M603.6,299.1l-31,7.8l-3.7,0.9l-28.8,7.3
		c-4.6-12.6-10-25.1-16.4-37.4c-0.7-1.3-1.4-2.6-2.1-4c0-0.1-0.1-0.2-0.2-0.3C467.6,172.7,369,115.7,281,126.4
		c-1.4,0.2-2.8,0.3-4.2,0.6c-6,0.9-11.9,2.1-17.8,3.6c-2.6,0.7-5.2,1.4-7.8,2.2c-9.7,3-19.2,7-28.5,11.9c-4.7,2.5-9.2,5.2-13.5,8.1
		c-3.4-2.5-6.1-5.9-7.9-9.7c14.7-9.4,30.3-17.3,46.8-23.7c2.4-0.9,4.8-1.8,7.3-2.7c6-2.2,12.2-4.1,18.5-5.8c1.4-0.4,2.7-0.8,4.1-1.1
		c21.5-5.6,44-8.5,67.2-8.5c109.5,0,203.6,65.7,245.1,159.8c0.6,1.3,1.2,2.7,1.7,4C596.6,276.1,600.5,287.5,603.6,299.1z"/>
	<circle class="st3" cx="540.6" cy="620.6" r="16.7"/>
	<g>
		<path d="M128.6,346.7l-50.9,9.4l-73,13.5l0.6,4.2l72.3-13.4l51.4-9.5C128.8,349.5,128.7,348.1,128.6,346.7z"/>
		<path d="M277.9,109.8c-1.4,0.4-2.8,0.7-4.1,1.1L253.9,3.7l4.2-0.9L277.9,109.8z"/>
		<path d="M777.8,227.2l-187.5,33.9c0.6,1.3,1.2,2.7,1.7,4l186.6-33.7L777.8,227.2z"/>
		<path d="M523.8,277.8c-0.7-1.3-1.4-2.6-2.1-4l-195.5,36.3l-2-10.9l-10.8,2L281,126.4c-1.4,0.2-2.8,0.3-4.2,0.6l32.5,175l-10.7,2
			l2,10.8l-171.9,31.9c0.1,1.4,0.2,2.8,0.4,4.3l170.6-31.6c0,0,0,0,0,0l1.7-0.3l2,10.7l10.7-2l4.2-0.8l10.9-2l-2-10.6L523.8,277.8z
			 M323.9,321.5l-6.6,1.2l-4.2,0.8l-6.5,1.2l-1.2-6.4l-0.8-4.2l-1.2-6.6l6.5-1.2l4.2-0.8l6.5-1.2l1.2,6.6l0.8,4.2L323.9,321.5z"/>
		<polygon points="317.4,322.7 313.2,323.5 312,317 305.5,318.2 304.7,314.1 311.2,312.9 310,306.3 314.2,305.5 315.4,312.1 
			322,310.9 322.7,315.1 316.2,316.3 		"/>
		<polygon points="440.5,998.2 438.5,998.5 436.3,999 371,635.5 366.7,612.4 313.9,327.7 318.1,326.9 371.1,612.8 375.2,635.1 		"/>
	</g>
</g>
<rect x="1321" y="-49.5" class="st5" width="65.3" height="65.3"/>
<rect x="1419" y="-49.5" class="st6" width="65.3" height="65.3"/>
<rect x="1513" y="-49.5" class="st3" width="65.3" height="65.3"/>
</svg>
